<svg width="1400" height="900" viewBox="0 0 1400 900" fill="none" xmlns="http://www.w3.org/2000/svg">
  <rect width="1400" height="900" rx="24" fill="#F7FAFC"/>
  <rect x="40" y="40" width="220" height="820" rx="20" fill="#10253F"/>
  <rect x="80" y="260" width="150" height="58" rx="14" fill="#22C55E"/>
  <text x="90" y="298" fill="#FFFFFF" font-family="Arial, sans-serif" font-size="24" font-weight="700">Manufacturers</text>
  <rect x="290" y="40" width="1070" height="90" rx="20" fill="#FFFFFF" stroke="#D7E0EA"/>
  <text x="340" y="96" fill="#0F172A" font-family="Arial, sans-serif" font-size="44" font-weight="700">Manufacturers</text>
  <rect x="1120" y="60" width="200" height="52" rx="14" fill="#10B981"/>
  <text x="1155" y="94" fill="#FFFFFF" font-family="Arial, sans-serif" font-size="24" font-weight="700">Add Manufacturer</text>

  <rect x="290" y="150" width="1070" height="660" rx="24" fill="#FFFFFF" stroke="#D7E0EA"/>
  <rect x="330" y="250" width="990" height="170" rx="18" fill="#FCFEFF" stroke="#D7E0EA"/>
  <text x="360" y="302" fill="#0F172A" font-family="Arial, sans-serif" font-size="30" font-weight="700">Factory A</text>
  <text x="360" y="338" fill="#64748B" font-family="Arial, sans-serif" font-size="20">factory@example.com</text>
  <rect x="860" y="280" width="140" height="42" rx="21" fill="#FEF3C7"/>
  <text x="896" y="307" fill="#92400E" font-family="Arial, sans-serif" font-size="22" font-weight="700">3 pending</text>
  <rect x="1014" y="280" width="146" height="42" rx="21" fill="#DCFCE7"/>
  <text x="1048" y="307" fill="#166534" font-family="Arial, sans-serif" font-size="22" font-weight="700">12 printed</text>
  <rect x="1175" y="272" width="105" height="48" rx="12" fill="#FFFFFF" stroke="#94A3B8" stroke-width="2"/>
  <text x="1193" y="304" fill="#0F172A" font-family="Arial, sans-serif" font-size="20" font-weight="700">View details</text>
  <rect x="1070" y="348" width="210" height="46" rx="12" fill="#FFFFFF" stroke="#CBD5E1"/>
  <text x="1095" y="378" fill="#0F172A" font-family="Arial, sans-serif" font-size="20" font-weight="700">Open manufacturer batches</text>

  <rect x="430" y="470" width="790" height="260" rx="22" fill="#FFFFFF" stroke="#CBD5E1"/>
  <text x="470" y="520" fill="#0F172A" font-family="Arial, sans-serif" font-size="34" font-weight="700">Add Manufacturer dialog</text>
  <text x="470" y="556" fill="#64748B" font-family="Arial, sans-serif" font-size="20">Invite a factory user with a secure activation link.</text>
  <rect x="470" y="590" width="700" height="54" rx="12" fill="#F8FAFC" stroke="#CBD5E1"/>
  <text x="500" y="624" fill="#475569" font-family="Arial, sans-serif" font-size="22">Name, email, location, website</text>
  <rect x="1010" y="670" width="160" height="50" rx="14" fill="#10B981"/>
  <text x="1045" y="702" fill="#FFFFFF" font-family="Arial, sans-serif" font-size="22" font-weight="700">Send invite</text>

  <defs>
    <marker id="arrow" markerWidth="14" markerHeight="14" refX="10" refY="7" orient="auto">
      <path d="M0 0L14 7L0 14V0Z" fill="#DC2626"/>
    </marker>
  </defs>

  <path d="M1020 110C980 170 960 220 930 280" stroke="#DC2626" stroke-width="5" marker-end="url(#arrow)"/>
  <text x="860" y="100" fill="#DC2626" font-family="Arial, sans-serif" font-size="28" font-weight="700">1. Add manufacturer</text>
  <text x="850" y="134" fill="#DC2626" font-family="Arial, sans-serif" font-size="22">Create the factory account first.</text>

  <path d="M770 188C860 188 920 220 930 272" stroke="#DC2626" stroke-width="5" marker-end="url(#arrow)"/>
  <text x="560" y="180" fill="#DC2626" font-family="Arial, sans-serif" font-size="28" font-weight="700">2. Use Pending / Printed chips</text>
  <text x="560" y="214" fill="#DC2626" font-family="Arial, sans-serif" font-size="22">Jump straight into that manufacturer's work.</text>

  <path d="M1240 430C1280 470 1280 520 1210 540" stroke="#DC2626" stroke-width="5" marker-end="url(#arrow)"/>
  <text x="1020" y="456" fill="#DC2626" font-family="Arial, sans-serif" font-size="28" font-weight="700">3. View details + batches</text>
  <text x="1012" y="490" fill="#DC2626" font-family="Arial, sans-serif" font-size="22">Use details first, then open batch operations.</text>
</svg>
