<svg width="1400" height="900" viewBox="0 0 1400 900" fill="none" xmlns="http://www.w3.org/2000/svg">
  <rect width="1400" height="900" rx="24" fill="#F7FAFC"/>
  <rect x="40" y="40" width="220" height="820" rx="20" fill="#10253F"/>
  <rect x="80" y="220" width="150" height="58" rx="14" fill="#22C55E"/>
  <text x="102" y="258" fill="#FFFFFF" font-family="Arial, sans-serif" font-size="26" font-weight="700">Batches</text>
  <rect x="290" y="40" width="1070" height="90" rx="20" fill="#FFFFFF" stroke="#D7E0EA"/>
  <text x="340" y="96" fill="#0F172A" font-family="Arial, sans-serif" font-size="44" font-weight="700">Batches</text>
  <rect x="290" y="150" width="1070" height="660" rx="24" fill="#FFFFFF" stroke="#D7E0EA"/>
  <rect x="330" y="188" width="700" height="52" rx="12" fill="#F8FAFC" stroke="#CBD5E1"/>
  <text x="360" y="221" fill="#64748B" font-family="Arial, sans-serif" font-size="24">Search source batches, IDs, manufacturers...</text>
  <rect x="1060" y="188" width="260" height="52" rx="12" fill="#ECFDF5" stroke="#10B981" stroke-width="2"/>
  <text x="1095" y="221" fill="#065F46" font-family="Arial, sans-serif" font-size="24" font-weight="700">All source batches</text>

  <rect x="330" y="270" width="990" height="180" rx="18" fill="#FCFEFF" stroke="#D7E0EA"/>
  <text x="360" y="320" fill="#0F172A" font-family="Arial, sans-serif" font-size="28" font-weight="700">Received AADS0000016001 -> AADS0000017000</text>
  <text x="360" y="356" fill="#64748B" font-family="Arial, sans-serif" font-size="20">One stable source row keeps the main list clean.</text>
  <rect x="360" y="386" width="210" height="46" rx="23" fill="#E6FFFB"/>
  <text x="390" y="416" fill="#047857" font-family="Arial, sans-serif" font-size="22" font-weight="700">900 unassigned</text>
  <rect x="590" y="386" width="170" height="46" rx="23" fill="#EEF2FF"/>
  <text x="625" y="416" fill="#3730A3" font-family="Arial, sans-serif" font-size="22" font-weight="700">100 assigned</text>
  <rect x="780" y="386" width="180" height="46" rx="23" fill="#F8FAFC" stroke="#CBD5E1"/>
  <text x="815" y="416" fill="#334155" font-family="Arial, sans-serif" font-size="22" font-weight="700">40 printed</text>
  <text x="1030" y="330" fill="#0F172A" font-family="Arial, sans-serif" font-size="24" font-weight="700">2 manufacturers</text>
  <text x="1030" y="365" fill="#64748B" font-family="Arial, sans-serif" font-size="20">Factory A + 1 more</text>
  <rect x="1140" y="372" width="140" height="48" rx="12" fill="#FFFFFF" stroke="#94A3B8" stroke-width="2"/>
  <text x="1170" y="404" fill="#0F172A" font-family="Arial, sans-serif" font-size="22" font-weight="700">Open</text>

  <rect x="330" y="472" width="990" height="300" rx="24" fill="#0F172A" fill-opacity="0.06" stroke="#CBD5E1" stroke-dasharray="10 8"/>
  <rect x="430" y="500" width="790" height="240" rx="22" fill="#FFFFFF" stroke="#CBD5E1"/>
  <text x="470" y="546" fill="#0F172A" font-family="Arial, sans-serif" font-size="34" font-weight="700">Batch workspace</text>
  <text x="470" y="582" fill="#64748B" font-family="Arial, sans-serif" font-size="20">Overview, operations, and audit live together in one dialog.</text>
  <rect x="470" y="612" width="180" height="42" rx="12" fill="#DBEAFE"/>
  <text x="515" y="639" fill="#1D4ED8" font-family="Arial, sans-serif" font-size="22" font-weight="700">Overview</text>
  <rect x="662" y="612" width="190" height="42" rx="12" fill="#ECFDF5"/>
  <text x="705" y="639" fill="#047857" font-family="Arial, sans-serif" font-size="22" font-weight="700">Operations</text>
  <rect x="864" y="612" width="130" height="42" rx="12" fill="#F8FAFC" stroke="#CBD5E1"/>
  <text x="900" y="639" fill="#334155" font-family="Arial, sans-serif" font-size="22" font-weight="700">Audit</text>
  <rect x="470" y="676" width="280" height="40" rx="10" fill="#F8FAFC" stroke="#CBD5E1"/>
  <text x="495" y="703" fill="#475569" font-family="Arial, sans-serif" font-size="20">Allocate to manufacturer</text>
  <rect x="780" y="676" width="230" height="40" rx="10" fill="#F8FAFC" stroke="#CBD5E1"/>
  <text x="805" y="703" fill="#475569" font-family="Arial, sans-serif" font-size="20">Allocation structure + audit</text>

  <defs>
    <marker id="arrow" markerWidth="14" markerHeight="14" refX="10" refY="7" orient="auto">
      <path d="M0 0L14 7L0 14V0Z" fill="#DC2626"/>
    </marker>
  </defs>

  <path d="M1180 110C1180 160 1220 210 1220 360" stroke="#DC2626" stroke-width="5" marker-end="url(#arrow)"/>
  <text x="1010" y="98" fill="#DC2626" font-family="Arial, sans-serif" font-size="28" font-weight="700">1. Open the batch workspace</text>
  <text x="998" y="132" fill="#DC2626" font-family="Arial, sans-serif" font-size="22">Use the stable source row, not split rows.</text>

  <path d="M1110 520C1165 520 1200 500 1220 470" stroke="#DC2626" stroke-width="5" marker-end="url(#arrow)"/>
  <text x="1030" y="565" fill="#DC2626" font-family="Arial, sans-serif" font-size="28" font-weight="700">2. Overview</text>
  <text x="980" y="599" fill="#DC2626" font-family="Arial, sans-serif" font-size="22">See total, remaining, assigned, and print status.</text>

  <path d="M1115 690C1180 700 1230 705 1260 700" stroke="#DC2626" stroke-width="5" marker-end="url(#arrow)"/>
  <text x="1035" y="742" fill="#DC2626" font-family="Arial, sans-serif" font-size="28" font-weight="700">3. Operations</text>
  <text x="975" y="776" fill="#DC2626" font-family="Arial, sans-serif" font-size="22">Allocate more quantity, rename, export audit.</text>
</svg>
