<svg width="512" height="512" viewBox="0 0 512 512" fill="none" xmlns="http://www.w3.org/2000/svg" role="img" aria-labelledby="title desc">
  <title id="title">MSCQR Logo</title>
  <desc id="desc">Shield and QR inspired mark for MSCQR</desc>
  <rect width="512" height="512" rx="112" fill="#0F172A"/>
  <rect x="72" y="72" width="368" height="368" rx="88" fill="url(#bg)"/>
  <path d="M256 110L365 150V245C365 319 316.7 387.7 256 406C195.3 387.7 147 319 147 245V150L256 110Z" fill="#E2E8F0" fill-opacity="0.11" stroke="#99F6E4" stroke-width="18"/>
  <rect x="186" y="181" width="54" height="54" rx="10" fill="#99F6E4"/>
  <rect x="186" y="277" width="54" height="54" rx="10" fill="#99F6E4"/>
  <rect x="282" y="181" width="54" height="54" rx="10" fill="#99F6E4"/>
  <rect x="282" y="277" width="24" height="24" rx="6" fill="#99F6E4"/>
  <rect x="312" y="307" width="24" height="24" rx="6" fill="#99F6E4"/>
  <rect x="312" y="247" width="24" height="24" rx="6" fill="#99F6E4"/>
  <rect x="252" y="247" width="24" height="24" rx="6" fill="#99F6E4"/>
  <defs>
    <linearGradient id="bg" x1="88" y1="88" x2="424" y2="424" gradientUnits="userSpaceOnUse">
      <stop stop-color="#0F172A"/>
      <stop offset="1" stop-color="#134E4A"/>
    </linearGradient>
  </defs>
</svg>
