<svg xmlns="http://www.w3.org/2000/svg" viewBox="0 0 256 256" role="img" aria-labelledby="title desc">
  <title id="title">MSCQR Logo</title>
  <desc id="desc">Shield and QR inspired mark for MSCQR</desc>
  <defs>
    <linearGradient id="bg" x1="24" y1="20" x2="232" y2="236" gradientUnits="userSpaceOnUse">
      <stop offset="0" stop-color="#0ea5e9"/>
      <stop offset="0.45" stop-color="#14b8a6"/>
      <stop offset="1" stop-color="#22c55e"/>
    </linearGradient>
    <linearGradient id="stroke" x1="70" y1="62" x2="182" y2="190" gradientUnits="userSpaceOnUse">
      <stop offset="0" stop-color="#ffffff"/>
      <stop offset="1" stop-color="#d1fae5"/>
    </linearGradient>
    <filter id="shadow" x="-20%" y="-20%" width="140%" height="140%">
      <feDropShadow dx="0" dy="8" stdDeviation="10" flood-color="#031525" flood-opacity="0.35"/>
    </filter>
  </defs>
  <rect x="16" y="16" width="224" height="224" rx="56" fill="#071426"/>
  <rect x="18" y="18" width="220" height="220" rx="54" fill="none" stroke="url(#bg)" stroke-width="4" opacity="0.75"/>
  <g filter="url(#shadow)">
    <path d="M128 49c-27 17-48 18-48 18v44c0 39 24 68 48 83 24-15 48-44 48-83V67s-21-1-48-18Z" fill="none" stroke="url(#stroke)" stroke-width="10" stroke-linecap="round" stroke-linejoin="round"/>
    <path d="M128 69c-15 9-27 10-27 10v29c0 23 13 41 27 51 14-10 27-28 27-51V79s-12-1-27-10Z" fill="rgba(255,255,255,.04)"/>
    <g fill="#ecfeff">
      <rect x="99" y="90" width="12" height="12" rx="3"/>
      <rect x="113" y="90" width="12" height="12" rx="3" opacity="0.92"/>
      <rect x="99" y="104" width="12" height="12" rx="3" opacity="0.92"/>
      <rect x="145" y="97" width="10" height="10" rx="3" opacity="0.9"/>
      <rect x="131" y="111" width="10" height="10" rx="3" opacity="0.95"/>
    </g>
    <path d="M95 136c22 11 44 11 66 0" fill="none" stroke="#67e8f9" stroke-width="8" stroke-linecap="round" opacity="0.9"/>
    <path d="M107 157h42" stroke="#34d399" stroke-width="7" stroke-linecap="round"/>
  </g>
</svg>
